<?xml version="1.0" standalone="no"?>
<!DOCTYPE svg PUBLIC "-//W3C//DTD SVG 20010904//EN"
 "http://www.w3.org/TR/2001/REC-SVG-20010904/DTD/svg10.dtd">
<svg version="1.0" xmlns="http://www.w3.org/2000/svg"
 width="260.000000pt" height="260.000000pt" viewBox="0 0 260.000000 260.000000"
 preserveAspectRatio="xMidYMid meet">
<metadata>
Created by potrace 1.11, written by Peter Selinger 2001-2013
</metadata>
<g transform="translate(0.000000,260.000000) scale(0.100000,-0.100000)"
fill="#000000" stroke="none">
<path d="M340 2372 c-88 -30 -138 -60 -195 -117 -109 -109 -155 -261 -125
-414 32 -168 183 -318 353 -352 31 -7 54 -15 51 -20 -3 -5 -7 -57 -9 -116 -3
-82 -7 -107 -18 -109 -133 -19 -274 -120 -335 -239 -46 -92 -63 -217 -41 -315
39 -172 204 -326 371 -346 84 -11 89 -10 159 2 74 14 144 46 203 93 l39 31 26
-21 c145 -113 312 -189 496 -223 76 -15 316 -16 370 -3 11 3 41 10 67 16 364
84 684 383 790 741 139 468 -40 964 -444 1230 -103 68 -197 109 -330 146 -138
38 -337 41 -503 9 -101 -20 -281 -96 -358 -153 l-49 -35 -45 52 c-52 59 -129
112 -200 136 -74 26 -206 29 -273 7z"/>
</g>
</svg>
