<svg xmlns="http://www.w3.org/2000/svg" viewBox="1706 78 36.2 31.682">
  <defs>
    <style>
      .cls-1 {
        fill: #28c0d1;
      }

      .cls-2 {
        fill: #ff5a5f;
      }
    </style>
  </defs>
  <g id="ChangeDirectionsIcon" transform="translate(1390)">
    <path id="Path_11" data-name="Path 11" class="cls-1" d="M35.79,83.493,29,77.837a1.129,1.129,0,0,0-1.852.87V82.1H25.255a4.513,4.513,0,0,1-3.839-2.128L14.091,68.249A9,9,0,0,0,6.42,64H0v4.525H6.42a4.513,4.513,0,0,1,3.839,2.128l7.325,11.723a9,9,0,0,0,7.671,4.256H27.15v3.394a1.128,1.128,0,0,0,1.131,1.131A1.093,1.093,0,0,0,29,90.9l6.787-5.656a1.124,1.124,0,0,0,.41-.87A1.139,1.139,0,0,0,35.79,83.493Z" transform="translate(316 18.525)"/>
    <path id="Path_12" data-name="Path 12" class="cls-2" d="M35.79,5.915,29,.259a1.129,1.129,0,0,0-1.852.87V4.523H25.255a8.989,8.989,0,0,0-7.671,4.256L10.259,20.494A4.513,4.513,0,0,1,6.42,22.623H0v4.525H6.42a8.989,8.989,0,0,0,7.671-4.256l7.325-11.723a4.513,4.513,0,0,1,3.839-2.128H27.15v3.394A1.13,1.13,0,0,0,29,13.3L35.79,7.648a1.124,1.124,0,0,0,.41-.87A1.11,1.11,0,0,0,35.79,5.915Z" transform="translate(316 78.003)"/>
  </g>
</svg>
