<svg xmlns="http://www.w3.org/2000/svg" xmlns:xlink="http://www.w3.org/1999/xlink" viewBox="568 138 142.604 61.966">
  <defs>
    <style>
      .cls-1 {
        fill: #153e69;
      }

      .cls-2 {
        fill: #29c0d1;
      }

      .cls-3 {
        fill: url(#radial-gradient);
      }
    </style>
    <radialGradient id="radial-gradient" cx="8.649" cy="8.623" r="8.623" gradientUnits="userSpaceOnUse">
      <stop offset="0" stop-color="#28bfcf"/>
      <stop offset="0.611" stop-color="#2184a0"/>
      <stop offset="1" stop-color="#163e69"/>
    </radialGradient>
  </defs>
  <g id="darkLogo" transform="translate(459)">
    <path id="Path_5" data-name="Path 5" class="cls-1" d="M8.95,51.843v1.908c2.362-3.589,6.5-5.951,12.175-5.951,4.816,0,8.768,1.5,11.312,5.27,1.681,2.453,2.453,5.86,2.453,10.267V84.189c0,2.544-1.59,3.862-4.725,3.862s-4.725-1.317-4.725-3.862V64.882a10.431,10.431,0,0,0-1.408-5.951c-1.317-1.908-3.407-2.817-6.224-2.817a10.081,10.081,0,0,0-8.314,4.043V84.189c0,2.544-1.59,3.862-4.725,3.862S0,86.733,0,84.189V51.843c0-2.544,1.5-3.862,4.543-3.862C7.814,47.982,9.041,49.572,8.95,51.843Z" transform="translate(109 111.915)"/>
    <path id="Path_6" data-name="Path 6" class="cls-1" d="M111.573,55.6A15.733,15.733,0,0,0,104.3,57.5c-1.5.772-2.271,1.408-3.316,1.408-2.453,0-3.862-2.635-3.862-4.543,0-1.317.772-2.453,2.908-3.68A25.506,25.506,0,0,1,112.572,47.6c6.315,0,10.176,1.772,12.629,4.725,1.772,2.09,2.544,5.361,2.544,9.631v21.9c0,2.726-1.045,4.043-4.452,4.043-2.817,0-4.225-.863-4.225-2.817V83.49c-2.635,3-6.406,4.452-11.13,4.452-7.9,0-12.539-4.407-12.539-11.221,0-8,6.587-12.539,23.169-13.765v-.863C118.524,57.776,116.525,55.6,111.573,55.6Zm-6.224,20.443c0,2.453,1.681,4.361,5.679,4.361a11.9,11.9,0,0,0,7.45-2.726v-8.5C109.665,70.224,105.349,71.9,105.349,76.039Z" transform="translate(56.94 112.025)"/>
    <path id="Path_7" data-name="Path 7" class="cls-1" d="M211.23,52.243c1.136-3,2.09-4.043,5.452-4.043,3.135,0,4.316,1.136,4.316,2.635a10.29,10.29,0,0,1-.772,3.316L207.959,83.681c-1.408,3.407-2.726,4.543-6.5,4.543-3.862,0-5.179-1.136-6.587-4.543l-11.9-29.529a9.225,9.225,0,0,1-.772-3.316c0-1.5,1.136-2.635,4.316-2.635,3.589,0,4.543,1.045,5.679,4.043l9.54,24.986Z" transform="translate(9.573 111.697)"/>
    <path id="Path_8" data-name="Path 8" class="cls-1" d="M287.951,19.821A5.73,5.73,0,0,1,282,13.96a5.952,5.952,0,0,1,11.9,0A5.73,5.73,0,0,1,287.951,19.821Zm4.725,42.7c0,2.544-1.59,3.862-4.725,3.862s-4.725-1.317-4.725-3.862V30.179c0-2.544,1.59-3.862,4.725-3.862s4.725,1.317,4.725,3.862Z" transform="translate(-44.888 133.58)"/>
    <g id="Group_3" data-name="Group 3" transform="translate(231.206 138)">
      <circle id="Ellipse_15" data-name="Ellipse 15" class="cls-2" cx="3.589" cy="3.589" r="3.589" transform="translate(0 9.041)"/>
      <circle id="Ellipse_16" data-name="Ellipse 16" class="cls-2" cx="3.589" cy="3.589" r="3.589"/>
      <circle id="Ellipse_17" data-name="Ellipse 17" class="cls-3" cx="8.632" cy="8.632" r="8.632" transform="translate(3.135 0)"/>
    </g>
    <circle id="Ellipse_18" data-name="Ellipse 18" class="cls-2" cx="1.817" cy="1.817" r="1.817" transform="translate(224.437 166.484)"/>
    <circle id="Ellipse_19" data-name="Ellipse 19" class="cls-2" cx="1.817" cy="1.817" r="1.817" transform="translate(222.62 161.487)"/>
    <circle id="Ellipse_20" data-name="Ellipse 20" class="cls-2" cx="1.817" cy="1.817" r="1.817" transform="translate(220.803 173.254)"/>
    <circle id="Ellipse_21" data-name="Ellipse 21" class="cls-2" cx="1.817" cy="1.817" r="1.817" transform="translate(219.031 168.256)"/>
  </g>
</svg>
